<svg width="122" height="153" viewBox="0 0 122 153" fill="none" xmlns="http://www.w3.org/2000/svg">
<g filter="url(#filter0_i_212_5)">
<circle cx="33.1894" cy="36.9398" r="13.4957" fill="#A20E0E"/>
<circle cx="14.0841" cy="35.8784" r="13.4957" fill="#A20E0E"/>
<circle cx="32.128" cy="25.2644" r="13.4957" fill="#A20E0E"/>
<circle cx="44.8649" cy="15.7118" r="13.4957" fill="#A20E0E"/>
<circle cx="61.8473" cy="13.5889" r="13.4957" fill="#A20E0E"/>
<circle cx="78.8297" cy="21.0188" r="13.4957" fill="#A20E0E"/>
<circle cx="100.058" cy="23.1416" r="13.4957" fill="#A20E0E"/>
<circle cx="77.2659" cy="35.0614" r="13.4932" fill="#A20E0E"/>
<circle cx="71.9589" cy="34" r="13.4932" fill="#A20E0E"/>
<circle cx="87.8799" cy="30.8158" r="13.4932" fill="#A20E0E"/>
<circle cx="62.8731" cy="38.6596" r="13.4932" fill="#A20E0E"/>
<circle cx="52.0785" cy="31.4632" r="13.4932" fill="#A20E0E"/>
<circle cx="95.2567" cy="40.4586" r="13.4932" fill="#A20E0E"/>
<circle cx="107.85" cy="35.0614" r="13.4932" fill="#A20E0E"/>
<path d="M10.5091 48.8737C9.86471 45.7698 12.2346 42.8575 15.4047 42.8575L109.328 42.8575C112.476 42.8575 114.841 45.7328 114.234 48.8223L94.9709 146.768C94.5098 149.112 92.4543 150.803 90.0649 150.803H64.6922H35.7375C33.3678 150.803 31.3235 149.14 30.8418 146.819L10.5091 48.8737Z" fill="#A20E0E" stroke="#A20E0E" stroke-width="2.5" stroke-linecap="round"/>
<path d="M49.1775 77.4054C49.1775 73.012 47.0411 69.8492 43.5422 69.8492C41.6194 69.8492 40.9598 70.9323 40.2701 73.4474C40.1296 73.9692 40.0602 74.221 39.9871 74.4711C39.7979 75.1152 39.468 76.2162 38.9995 77.7635C38.9867 77.8048 38.9678 77.8442 38.9433 77.8804L33.5741 85.9511C32.3032 87.8603 30.4278 89.3276 28.2237 90.1376L27.3373 90.4633C26.2054 90.8794 25.2626 91.6653 24.6744 92.6826C24.0863 93.7 23.8905 94.8838 24.1214 96.0261L24.8785 99.779C25.1001 100.876 25.6445 101.889 26.4472 102.698C27.25 103.508 28.2775 104.079 29.4081 104.345L43.7034 107.709C45.9824 108.245 48.3897 107.896 50.4017 106.737C52.4137 105.578 53.8676 103.703 54.4473 101.52L57.0991 91.5355C57.3284 90.6721 57.3492 89.7699 57.1598 88.8976C56.9704 88.0254 56.5759 87.2063 56.0063 86.5028C55.4368 85.7993 54.7073 85.23 53.8736 84.8385C53.0399 84.447 52.124 84.2436 51.1959 84.2438H47.7813C48.7109 81.3059 49.1775 79.0408 49.1775 77.4054ZM26.8762 95.5115C26.7715 94.9924 26.8606 94.4545 27.1279 93.9923C27.3953 93.53 27.8237 93.1729 28.338 92.9838L29.2263 92.6581C31.9918 91.6417 34.3447 89.8003 35.9392 87.4048L41.3121 79.3341C41.4808 79.0822 41.6101 78.8051 41.6963 78.5173C42.1685 76.9611 42.4984 75.8546 42.6895 75.2015C42.7934 74.8471 42.8928 74.4915 42.9875 74.1347C43.3436 72.8357 43.5179 72.5497 43.5403 72.5497C45.167 72.5497 46.3645 74.32 46.3645 77.4054C46.3645 78.9958 45.7536 81.6063 44.5205 85.1685C44.4505 85.3712 44.4316 85.5868 44.4653 85.7978C44.4991 86.0088 44.5845 86.2092 44.7146 86.3823C44.8446 86.5555 45.0156 86.6965 45.2135 86.7939C45.4114 86.8913 45.6306 86.9422 45.8529 86.9424H51.194C51.6936 86.9424 52.1867 87.0519 52.6355 87.2627C53.0843 87.4735 53.477 87.78 53.7837 88.1587C54.0903 88.5374 54.3027 88.9784 54.4048 89.4479C54.5068 89.9175 54.4957 90.4032 54.3724 90.868L51.7206 100.853C51.3237 102.346 50.3286 103.629 48.9518 104.422C47.5751 105.214 45.9279 105.453 44.3687 105.086L30.0734 101.722C29.4649 101.579 28.9119 101.271 28.4798 100.836C28.0478 100.4 27.7547 99.8548 27.6352 99.2644L26.8762 95.5115Z" fill="#E9E9E9"/>
<path d="M26.8762 95.5115C26.7715 94.9924 26.8606 94.4545 27.1279 93.9923C27.3953 93.53 27.8237 93.1729 28.338 92.9838L29.2263 92.6581C31.9918 91.6417 34.3447 89.8003 35.9392 87.4048L41.3121 79.3341C41.4808 79.0822 41.6101 78.8051 41.6963 78.5173C42.1685 76.9611 42.4984 75.8546 42.6895 75.2015C42.7934 74.8471 42.8928 74.4915 42.9875 74.1347C43.3436 72.8357 43.5179 72.5497 43.5403 72.5497C45.167 72.5497 46.3645 74.32 46.3645 77.4054C46.3645 78.9958 45.7536 81.6063 44.5205 85.1685C44.4505 85.3712 44.4316 85.5868 44.4653 85.7978C44.4991 86.0088 44.5845 86.2092 44.7146 86.3823C44.8446 86.5555 45.0156 86.6965 45.2135 86.7939C45.4114 86.8913 45.6306 86.9422 45.8529 86.9424H51.194C51.6936 86.9424 52.1867 87.0519 52.6355 87.2627C53.0843 87.4735 53.477 87.78 53.7837 88.1587C54.0903 88.5374 54.3027 88.9784 54.4048 89.4479C54.5068 89.9175 54.4957 90.4032 54.3724 90.868L51.7206 100.853C51.3237 102.346 50.3286 103.629 48.9518 104.422C47.5751 105.214 45.9279 105.453 44.3687 105.086L30.0734 101.722C29.4649 101.579 28.9119 101.271 28.4798 100.836C28.0478 100.4 27.7547 99.8548 27.6352 99.2644L26.8762 95.5115Z" fill="#E9E9E9"/>
<path d="M77.2883 101.862C77.2883 106.256 79.4247 109.418 82.9236 109.418C84.8464 109.418 85.5061 108.335 86.1957 105.82C86.3363 105.299 86.4056 105.047 86.4787 104.797C86.668 104.153 86.9978 103.051 87.4663 101.504C87.4791 101.463 87.498 101.423 87.5225 101.387L92.8917 93.3166C94.1626 91.4074 96.038 89.9401 98.2421 89.1301L99.1286 88.8044C100.26 88.3883 101.203 87.6024 101.791 86.5851C102.38 85.5677 102.575 84.3839 102.344 83.2416L101.587 79.4887C101.366 78.3917 100.821 77.3786 100.019 76.5693C99.2158 75.7601 98.1883 75.1886 97.0577 74.9226L82.7624 71.5583C80.4834 71.0223 78.0761 71.3718 76.0642 72.5308C74.0522 73.6898 72.5982 75.5645 72.0185 77.7472L69.3667 87.7322C69.1374 88.5956 69.1166 89.4978 69.306 90.3701C69.4954 91.2423 69.89 92.0614 70.4595 92.7649C71.029 93.4684 71.7585 94.0377 72.5922 94.4292C73.426 94.8207 74.3419 95.0241 75.27 95.0239H78.6845C77.755 97.9618 77.2883 100.227 77.2883 101.862ZM99.5896 83.7562C99.6943 84.2753 99.6052 84.8132 99.3379 85.2754C99.0706 85.7377 98.6421 86.0948 98.1278 86.2839L97.2395 86.6096C94.474 87.626 92.1211 89.4674 90.5266 91.8629L85.1537 99.9336C84.9851 100.186 84.8558 100.463 84.7695 100.75C84.2973 102.307 83.9675 103.413 83.7763 104.066C83.6724 104.421 83.573 104.776 83.4783 105.133C83.1223 106.432 82.948 106.718 82.9255 106.718C81.2988 106.718 80.1013 104.948 80.1013 101.862C80.1013 100.272 80.7122 97.6614 81.9453 94.0992C82.0153 93.8965 82.0342 93.6809 82.0005 93.4699C81.9667 93.2589 81.8813 93.0585 81.7513 92.8854C81.6212 92.7122 81.4502 92.5712 81.2523 92.4738C81.0544 92.3764 80.8353 92.3255 80.6129 92.3253H75.2718C74.7722 92.3253 74.2791 92.2158 73.8303 92.005C73.3815 91.7942 72.9888 91.4877 72.6821 91.109C72.3755 90.7303 72.1631 90.2893 72.061 89.8198C71.959 89.3502 71.9701 88.8645 72.0934 88.3997L74.7452 78.4147C75.1421 76.9213 76.1372 75.6388 77.514 74.846C78.8908 74.0533 80.5379 73.8144 82.0971 74.1814L96.3924 77.5457C97.0009 77.689 97.5539 77.9966 97.986 78.4321C98.4181 78.8676 98.7111 79.4129 98.8306 80.0033L99.5896 83.7562Z" fill="#E9E9E9"/>
<path d="M99.5896 83.7562C99.6943 84.2753 99.6052 84.8132 99.3379 85.2754C99.0706 85.7377 98.6421 86.0948 98.1278 86.2839L97.2395 86.6096C94.474 87.626 92.1211 89.4674 90.5266 91.8629L85.1537 99.9336C84.9851 100.186 84.8558 100.463 84.7695 100.75C84.2973 102.307 83.9675 103.413 83.7763 104.066C83.6724 104.421 83.573 104.776 83.4783 105.133C83.1223 106.432 82.948 106.718 82.9255 106.718C81.2988 106.718 80.1013 104.948 80.1013 101.862C80.1013 100.272 80.7122 97.6614 81.9453 94.0992C82.0153 93.8965 82.0342 93.6809 82.0005 93.4699C81.9667 93.2589 81.8813 93.0585 81.7513 92.8854C81.6212 92.7122 81.4502 92.5712 81.2523 92.4738C81.0544 92.3764 80.8353 92.3255 80.6129 92.3253H75.2718C74.7722 92.3253 74.2791 92.2158 73.8303 92.005C73.3815 91.7942 72.9888 91.4877 72.6821 91.109C72.3755 90.7303 72.1631 90.2893 72.061 89.8198C71.959 89.3502 71.9701 88.8645 72.0934 88.3997L74.7452 78.4147C75.1421 76.9213 76.1372 75.6388 77.514 74.846C78.8908 74.0533 80.5379 73.8144 82.0971 74.1814L96.3924 77.5457C97.0009 77.689 97.5539 77.9966 97.986 78.4321C98.4181 78.8676 98.7111 79.4129 98.8306 80.0033L99.5896 83.7562Z" fill="#E9E9E9"/>
</g>
<defs>
<filter id="filter0_i_212_5" x="0.588379" y="0.0932007" width="124.755" height="155.96" filterUnits="userSpaceOnUse" color-interpolation-filters="sRGB">
<feFlood flood-opacity="0" result="BackgroundImageFix"/>
<feBlend mode="normal" in="SourceGraphic" in2="BackgroundImageFix" result="shape"/>
<feColorMatrix in="SourceAlpha" type="matrix" values="0 0 0 0 0 0 0 0 0 0 0 0 0 0 0 0 0 0 127 0" result="hardAlpha"/>
<feOffset dx="4" dy="4"/>
<feGaussianBlur stdDeviation="2"/>
<feComposite in2="hardAlpha" operator="arithmetic" k2="-1" k3="1"/>
<feColorMatrix type="matrix" values="0 0 0 0 0 0 0 0 0 0 0 0 0 0 0 0 0 0 0.45 0"/>
<feBlend mode="normal" in2="shape" result="effect1_innerShadow_212_5"/>
</filter>
</defs>
</svg>
