<?xml version="1.0" standalone="no"?>
<!DOCTYPE svg PUBLIC "-//W3C//DTD SVG 20010904//EN"
 "http://www.w3.org/TR/2001/REC-SVG-20010904/DTD/svg10.dtd">
<svg version="1.0" xmlns="http://www.w3.org/2000/svg"
 width="64.000000pt" height="64.000000pt" viewBox="0 0 64.000000 64.000000"
 preserveAspectRatio="xMidYMid meet">

<g transform="translate(0.000000,64.000000) scale(0.100000,-0.100000)"
fill="#000000" stroke="none">
<path d="M190 538 c-25 -14 -58 -44 -75 -67 -27 -39 -30 -50 -30 -120 0 -69 3
-82 29 -119 59 -86 177 -115 272 -67 l49 25 57 -57 c32 -31 61 -54 65 -50 4 4
-19 33 -50 65 l-57 57 25 49 c48 95 19 213 -67 272 -58 41 -154 46 -218 12z
m207 -34 c46 -36 83 -106 83 -154 0 -19 -9 -53 -19 -75 -60 -131 -221 -152
-318 -42 -76 87 -46 233 59 286 63 32 144 26 195 -15z"/>
</g>
</svg>
